<mxfile host="app.diagrams.net" modified="2021-03-23T11:56:40.759Z" agent="5.0 (Windows)" etag="hQQ1qxfiVC55-0rUDVcE" version="14.5.0" type="github">
  <diagram id="C5RBs43oDa-KdzZeNtuy" name="Page-1">
    <mxGraphModel dx="1422" dy="768" grid="1" gridSize="10" guides="1" tooltips="1" connect="1" arrows="1" fold="1" page="1" pageScale="1" pageWidth="827" pageHeight="1169" math="0" shadow="0">
      <root>
        <mxCell id="WIyWlLk6GJQsqaUBKTNV-0" />
        <mxCell id="WIyWlLk6GJQsqaUBKTNV-1" parent="WIyWlLk6GJQsqaUBKTNV-0" />
        <mxCell id="WIyWlLk6GJQsqaUBKTNV-3" value="Spin Up" style="rounded=1;whiteSpace=wrap;html=1;fontSize=12;glass=0;strokeWidth=1;shadow=0;" parent="WIyWlLk6GJQsqaUBKTNV-1" vertex="1">
          <mxGeometry x="159" y="103" width="120" height="40" as="geometry" />
        </mxCell>
        <mxCell id="Ot_56cbFEp9sYGnuBPlh-0" value="" style="shape=flexArrow;endArrow=classic;html=1;fillColor=#d5e8d4;strokeColor=#82b366;" edge="1" parent="WIyWlLk6GJQsqaUBKTNV-1">
          <mxGeometry width="50" height="50" relative="1" as="geometry">
            <mxPoint x="300" y="189.5" as="sourcePoint" />
            <mxPoint x="360" y="190" as="targetPoint" />
          </mxGeometry>
        </mxCell>
        <mxCell id="Ot_56cbFEp9sYGnuBPlh-1" value="Prepare Environmental Variables" style="rounded=1;whiteSpace=wrap;html=1;" vertex="1" parent="WIyWlLk6GJQsqaUBKTNV-1">
          <mxGeometry x="159" y="160" width="120" height="60" as="geometry" />
        </mxCell>
        <mxCell id="Ot_56cbFEp9sYGnuBPlh-2" value="&lt;div&gt;Install Node.js&lt;/div&gt;" style="rounded=1;whiteSpace=wrap;html=1;" vertex="1" parent="WIyWlLk6GJQsqaUBKTNV-1">
          <mxGeometry x="379" y="160" width="120" height="60" as="geometry" />
        </mxCell>
        <mxCell id="Ot_56cbFEp9sYGnuBPlh-3" value="" style="shape=flexArrow;endArrow=classic;html=1;fillColor=#d5e8d4;strokeColor=#82b366;" edge="1" parent="WIyWlLk6GJQsqaUBKTNV-1">
          <mxGeometry width="50" height="50" relative="1" as="geometry">
            <mxPoint x="519" y="189.5" as="sourcePoint" />
            <mxPoint x="579" y="189.5" as="targetPoint" />
          </mxGeometry>
        </mxCell>
        <mxCell id="Ot_56cbFEp9sYGnuBPlh-4" value="Install NPM" style="rounded=1;whiteSpace=wrap;html=1;" vertex="1" parent="WIyWlLk6GJQsqaUBKTNV-1">
          <mxGeometry x="600" y="160" width="120" height="60" as="geometry" />
        </mxCell>
        <mxCell id="Ot_56cbFEp9sYGnuBPlh-5" value="&lt;div&gt;Checkout Code&lt;br&gt;&lt;/div&gt;&lt;div&gt;from Github&lt;/div&gt;" style="rounded=1;whiteSpace=wrap;html=1;" vertex="1" parent="WIyWlLk6GJQsqaUBKTNV-1">
          <mxGeometry x="159" y="240" width="120" height="60" as="geometry" />
        </mxCell>
        <mxCell id="Ot_56cbFEp9sYGnuBPlh-6" value="Install Frontend" style="rounded=1;whiteSpace=wrap;html=1;" vertex="1" parent="WIyWlLk6GJQsqaUBKTNV-1">
          <mxGeometry x="159" y="320" width="120" height="60" as="geometry" />
        </mxCell>
        <mxCell id="Ot_56cbFEp9sYGnuBPlh-7" value="Install API" style="rounded=1;whiteSpace=wrap;html=1;" vertex="1" parent="WIyWlLk6GJQsqaUBKTNV-1">
          <mxGeometry x="379" y="320" width="120" height="60" as="geometry" />
        </mxCell>
        <mxCell id="Ot_56cbFEp9sYGnuBPlh-8" value="&lt;div&gt;Build Frontend&lt;/div&gt;" style="rounded=1;whiteSpace=wrap;html=1;" vertex="1" parent="WIyWlLk6GJQsqaUBKTNV-1">
          <mxGeometry x="159" y="400" width="120" height="60" as="geometry" />
        </mxCell>
        <mxCell id="Ot_56cbFEp9sYGnuBPlh-9" value="Build API" style="rounded=1;whiteSpace=wrap;html=1;" vertex="1" parent="WIyWlLk6GJQsqaUBKTNV-1">
          <mxGeometry x="379" y="400" width="120" height="60" as="geometry" />
        </mxCell>
        <mxCell id="Ot_56cbFEp9sYGnuBPlh-10" value="" style="shape=flexArrow;endArrow=classic;html=1;fillColor=#d5e8d4;strokeColor=#82b366;" edge="1" parent="WIyWlLk6GJQsqaUBKTNV-1">
          <mxGeometry width="50" height="50" relative="1" as="geometry">
            <mxPoint x="300" y="349.5" as="sourcePoint" />
            <mxPoint x="360" y="349.5" as="targetPoint" />
          </mxGeometry>
        </mxCell>
        <mxCell id="Ot_56cbFEp9sYGnuBPlh-11" value="" style="shape=flexArrow;endArrow=classic;html=1;fillColor=#d5e8d4;strokeColor=#82b366;" edge="1" parent="WIyWlLk6GJQsqaUBKTNV-1">
          <mxGeometry width="50" height="50" relative="1" as="geometry">
            <mxPoint x="300" y="429" as="sourcePoint" />
            <mxPoint x="360" y="429" as="targetPoint" />
          </mxGeometry>
        </mxCell>
        <mxCell id="Ot_56cbFEp9sYGnuBPlh-13" value="&lt;b&gt;&lt;font style=&quot;font-size: 48px&quot;&gt;1&lt;/font&gt;&lt;/b&gt;" style="text;html=1;strokeColor=none;fillColor=none;align=center;verticalAlign=middle;whiteSpace=wrap;rounded=0;" vertex="1" parent="WIyWlLk6GJQsqaUBKTNV-1">
          <mxGeometry x="89" y="113" width="40" height="20" as="geometry" />
        </mxCell>
        <mxCell id="Ot_56cbFEp9sYGnuBPlh-14" value="&lt;b&gt;&lt;font style=&quot;font-size: 48px&quot;&gt;2&lt;/font&gt;&lt;/b&gt;" style="text;html=1;strokeColor=none;fillColor=none;align=center;verticalAlign=middle;whiteSpace=wrap;rounded=0;" vertex="1" parent="WIyWlLk6GJQsqaUBKTNV-1">
          <mxGeometry x="89" y="180" width="40" height="20" as="geometry" />
        </mxCell>
        <mxCell id="Ot_56cbFEp9sYGnuBPlh-15" value="&lt;b&gt;&lt;font style=&quot;font-size: 48px&quot;&gt;3&lt;/font&gt;&lt;/b&gt;" style="text;html=1;strokeColor=none;fillColor=none;align=center;verticalAlign=middle;whiteSpace=wrap;rounded=0;" vertex="1" parent="WIyWlLk6GJQsqaUBKTNV-1">
          <mxGeometry x="89" y="260" width="40" height="20" as="geometry" />
        </mxCell>
        <mxCell id="Ot_56cbFEp9sYGnuBPlh-16" value="&lt;b&gt;&lt;font style=&quot;font-size: 48px&quot;&gt;4&lt;/font&gt;&lt;/b&gt;" style="text;html=1;strokeColor=none;fillColor=none;align=center;verticalAlign=middle;whiteSpace=wrap;rounded=0;" vertex="1" parent="WIyWlLk6GJQsqaUBKTNV-1">
          <mxGeometry x="89" y="340" width="40" height="20" as="geometry" />
        </mxCell>
        <mxCell id="Ot_56cbFEp9sYGnuBPlh-17" value="&lt;b&gt;&lt;font style=&quot;font-size: 48px&quot;&gt;5&lt;/font&gt;&lt;/b&gt;" style="text;html=1;strokeColor=none;fillColor=none;align=center;verticalAlign=middle;whiteSpace=wrap;rounded=0;" vertex="1" parent="WIyWlLk6GJQsqaUBKTNV-1">
          <mxGeometry x="89" y="420" width="40" height="20" as="geometry" />
        </mxCell>
        <mxCell id="Ot_56cbFEp9sYGnuBPlh-19" value="" style="outlineConnect=0;dashed=0;verticalLabelPosition=bottom;verticalAlign=top;align=center;html=1;shape=mxgraph.aws3.android;fillColor=#8CC64F;gradientColor=none;" vertex="1" parent="WIyWlLk6GJQsqaUBKTNV-1">
          <mxGeometry x="419" y="131" width="40" height="49" as="geometry" />
        </mxCell>
        <mxCell id="Ot_56cbFEp9sYGnuBPlh-20" value="" style="shape=image;html=1;verticalAlign=top;verticalLabelPosition=bottom;labelBackgroundColor=#ffffff;imageAspect=0;aspect=fixed;image=https://cdn0.iconfinder.com/data/icons/logos-21/40/NPM-128.png" vertex="1" parent="WIyWlLk6GJQsqaUBKTNV-1">
          <mxGeometry x="628" y="131" width="64" height="64" as="geometry" />
        </mxCell>
        <mxCell id="Ot_56cbFEp9sYGnuBPlh-21" value="" style="shape=image;html=1;verticalAlign=top;verticalLabelPosition=bottom;labelBackgroundColor=#ffffff;imageAspect=0;aspect=fixed;image=https://cdn3.iconfinder.com/data/icons/iconic-1/32/spin_alt-128.png" vertex="1" parent="WIyWlLk6GJQsqaUBKTNV-1">
          <mxGeometry x="204.5" y="84" width="29" height="29" as="geometry" />
        </mxCell>
        <mxCell id="Ot_56cbFEp9sYGnuBPlh-25" value="" style="shape=image;html=1;verticalAlign=top;verticalLabelPosition=bottom;labelBackgroundColor=#ffffff;imageAspect=0;aspect=fixed;image=https://cdn0.iconfinder.com/data/icons/octicons/1024/mark-github-128.png;comic=0;" vertex="1" parent="WIyWlLk6GJQsqaUBKTNV-1">
          <mxGeometry x="204" y="226" width="29.5" height="29.5" as="geometry" />
        </mxCell>
        <mxCell id="Ot_56cbFEp9sYGnuBPlh-26" value="" style="shape=image;html=1;verticalAlign=top;verticalLabelPosition=bottom;labelBackgroundColor=#ffffff;imageAspect=0;aspect=fixed;image=https://cdn2.iconfinder.com/data/icons/humano2/128x128/apps/gnome-app-install.png" vertex="1" parent="WIyWlLk6GJQsqaUBKTNV-1">
          <mxGeometry x="32" y="321" width="58" height="58" as="geometry" />
        </mxCell>
        <mxCell id="Ot_56cbFEp9sYGnuBPlh-27" value="" style="shape=image;html=1;verticalAlign=top;verticalLabelPosition=bottom;labelBackgroundColor=#ffffff;imageAspect=0;aspect=fixed;image=https://cdn3.iconfinder.com/data/icons/simple2/Settings.png" vertex="1" parent="WIyWlLk6GJQsqaUBKTNV-1">
          <mxGeometry x="43" y="411" width="38" height="38" as="geometry" />
        </mxCell>
      </root>
    </mxGraphModel>
  </diagram>
</mxfile>
